<?xml version="1.0" encoding="UTF-8" standalone="no"?>
<!DOCTYPE svg PUBLIC "-//W3C//DTD SVG 1.1//EN" "http://www.w3.org/Graphics/SVG/1.1/DTD/svg11.dtd">
<svg width="100%" height="100%" viewBox="0 0 2955 910" version="1.1" xmlns="http://www.w3.org/2000/svg" xmlns:xlink="http://www.w3.org/1999/xlink" xml:space="preserve" xmlns:serif="http://www.serif.com/" style="fill-rule:evenodd;clip-rule:evenodd;stroke-linejoin:round;stroke-miterlimit:2;">
    <g transform="matrix(1,0,0,1,-14171.837574,-2651.574803)">
        <g transform="matrix(2.120512,0,0,2.120512,13485.136263,-5965.233386)">
            <path d="M907.297,4392.747C905.968,4397.621 904.507,4402.635 902.916,4407.789C898.601,4421.765 892.156,4435.047 883.582,4447.636C875.008,4460.224 863.169,4470.529 848.064,4478.551C832.96,4486.572 813.325,4490.583 789.161,4490.583C758.4,4490.583 731.493,4483.514 708.442,4469.377C685.39,4455.24 667.498,4435.454 654.764,4410.019C642.031,4384.584 635.664,4354.888 635.664,4320.931C635.664,4286.794 642.076,4257.083 654.899,4231.798C667.723,4206.512 685.75,4186.877 708.98,4172.89C732.21,4158.904 759.295,4151.911 790.237,4151.911C813.574,4151.911 832.776,4155.576 847.845,4162.907C862.913,4170.237 874.828,4179.748 883.591,4191.441C892.354,4203.134 898.943,4215.694 903.358,4229.122C904.652,4233.06 905.844,4236.936 906.933,4240.75L923.305,4156.013L1005.066,4156.013L963.797,4319.738L1009.437,4483.552L926.729,4483.552L907.297,4392.747ZM891.673,4319.737L891.495,4318.903C888.955,4306.864 885.444,4295.135 880.959,4283.715C876.475,4272.295 870.752,4261.959 863.791,4252.706C856.83,4243.453 848.32,4236.078 838.261,4230.58C828.203,4225.082 816.374,4222.333 802.775,4222.333C786.589,4222.333 772.655,4226.237 760.972,4234.043C749.29,4241.849 740.352,4253.038 734.159,4267.609C727.965,4282.179 724.869,4299.787 724.869,4320.432C724.869,4340.809 727.868,4358.335 733.866,4373.011C739.864,4387.687 748.513,4398.95 759.812,4406.801C771.111,4414.651 784.561,4418.577 800.162,4418.577C813.898,4418.577 825.972,4415.678 836.384,4409.879C846.797,4404.081 855.694,4396.409 863.074,4386.863C870.455,4377.317 876.477,4366.771 881.14,4355.224C885.803,4343.678 889.255,4332.157 891.495,4320.661L891.673,4319.737ZM323.838,4483.552L323.838,4387.552L422.238,4387.552L422.238,4483.552L323.838,4483.552ZM488.838,4483.552L488.838,4063.552L584.238,4063.552L584.238,4483.552L488.838,4483.552ZM1245.951,4165.552C1343.151,4165.552 1394.751,4239.352 1394.751,4328.752C1394.751,4418.752 1338.951,4492.552 1244.151,4492.552C1201.551,4492.552 1166.151,4475.752 1143.951,4448.152L1139.151,4483.552L1055.751,4483.552L1055.751,4063.552L1148.751,4063.552L1148.751,4205.752C1172.151,4179.952 1208.151,4165.552 1245.951,4165.552ZM1229.151,4241.152C1176.951,4241.152 1148.751,4282.552 1148.751,4328.752C1148.751,4373.752 1176.951,4416.352 1229.151,4416.352C1280.751,4416.352 1307.151,4375.552 1307.151,4328.752C1307.151,4282.552 1282.551,4241.152 1229.151,4241.152ZM1565.751,4165.552C1643.751,4165.552 1706.751,4198.552 1710.951,4272.952L1624.551,4272.952C1620.351,4242.952 1599.351,4230.352 1565.151,4230.352C1538.751,4230.352 1523.151,4241.152 1523.151,4257.952C1523.151,4286.752 1562.751,4292.152 1598.751,4298.152C1660.551,4307.752 1716.951,4326.352 1716.951,4394.152C1716.951,4466.152 1646.751,4492.552 1572.351,4492.552C1490.751,4492.552 1425.951,4455.952 1423.551,4377.952L1514.751,4377.952C1517.151,4415.152 1542.351,4428.352 1578.351,4428.352C1602.951,4428.352 1627.551,4421.152 1627.551,4399.552C1627.551,4368.352 1577.151,4361.752 1544.151,4355.152C1487.751,4344.952 1431.951,4323.952 1431.951,4261.552C1431.951,4192.552 1502.151,4165.552 1565.751,4165.552Z" style="fill:white;fill-opacity:0.67;"/>
        </g>
    </g>
</svg>
