<?xml version="1.0" encoding="UTF-8" standalone="no"?>
<!DOCTYPE svg PUBLIC "-//W3C//DTD SVG 1.1//EN" "http://www.w3.org/Graphics/SVG/1.1/DTD/svg11.dtd">
<svg width="100%" height="100%" viewBox="0 0 591 591" version="1.1" xmlns="http://www.w3.org/2000/svg" xmlns:xlink="http://www.w3.org/1999/xlink" xml:space="preserve" xmlns:serif="http://www.serif.com/" style="fill-rule:evenodd;clip-rule:evenodd;stroke-linejoin:round;stroke-miterlimit:2;">
    <g transform="matrix(1,0,0,1,-295.275591,-1181.102362)">
        <g transform="matrix(1.519668,0,0,1.519668,-1284.874958,-365.292406)">
            <path d="M1142.953,1040.306C1237.653,990 1355.38,1026.041 1405.686,1120.741C1455.993,1215.44 1419.951,1333.167 1325.251,1383.474C1230.552,1433.78 1112.825,1397.738 1062.519,1303.039C1012.212,1208.339 1048.254,1090.613 1142.953,1040.306ZM1122.401,1246.462C1129.654,1233.677 1140.505,1222.737 1154.436,1215.336C1162.465,1211.071 1170.896,1208.312 1179.404,1206.959C1179.933,1188.161 1190.273,1170.166 1208.053,1160.721C1225.736,1151.327 1246.309,1152.766 1262.147,1162.705C1267.65,1157.199 1274.052,1152.409 1281.28,1148.569C1295.501,1141.015 1310.978,1138.171 1325.919,1139.488C1291.612,1095.904 1229.95,1081.712 1179.255,1108.642C1128.872,1135.407 1106.082,1193.886 1122.401,1246.462Z" style="fill:white;"/>
        </g>
    </g>
</svg>
