<?xml version="1.0" encoding="UTF-8" standalone="no"?>
<!DOCTYPE svg PUBLIC "-//W3C//DTD SVG 1.1//EN" "http://www.w3.org/Graphics/SVG/1.1/DTD/svg11.dtd">
<svg width="100%" height="100%" viewBox="0 0 3856 910" version="1.1" xmlns="http://www.w3.org/2000/svg" xmlns:xlink="http://www.w3.org/1999/xlink" xml:space="preserve" xmlns:serif="http://www.serif.com/" style="fill-rule:evenodd;clip-rule:evenodd;stroke-linejoin:round;stroke-miterlimit:2;">
    <g transform="matrix(1,0,0,1,-13270.413617,-2651.574803)">
        <g transform="matrix(2.119927,0,0,2.119927,11959.421698,-5002.0801)">
            <path d="M618.414,4030.338L618.414,3934.338L716.814,3934.338L716.814,4030.338L618.414,4030.338ZM917.214,3712.338C995.214,3712.338 1058.214,3745.338 1062.414,3819.738L976.014,3819.738C971.814,3789.738 950.814,3777.138 916.614,3777.138C890.214,3777.138 874.614,3787.938 874.614,3804.738C874.614,3833.538 914.214,3838.938 950.214,3844.938C1012.014,3854.538 1068.414,3873.138 1068.414,3940.938C1068.414,4012.938 998.214,4039.338 923.814,4039.338C842.214,4039.338 777.414,4002.738 775.014,3924.738L866.214,3924.738C868.614,3961.938 893.814,3975.138 929.814,3975.138C954.414,3975.138 979.014,3967.938 979.014,3946.338C979.014,3915.138 928.614,3908.538 895.614,3901.938C839.214,3891.738 783.414,3870.738 783.414,3808.338C783.414,3739.338 853.614,3712.338 917.214,3712.338ZM1261.014,3712.338C1358.214,3712.338 1428.414,3779.538 1428.414,3875.538C1428.414,3970.938 1358.214,4039.338 1261.014,4039.338C1164.414,4039.338 1094.214,3971.538 1094.214,3875.538C1094.214,3779.538 1164.414,3712.338 1261.014,3712.338ZM1261.014,3787.938C1209.414,3787.938 1185.414,3830.538 1185.414,3875.538C1185.414,3920.538 1209.414,3963.138 1261.014,3963.138C1313.214,3963.138 1336.614,3919.938 1336.614,3875.538C1336.614,3830.538 1312.614,3787.938 1261.014,3787.938ZM1625.814,3712.338C1706.814,3712.338 1766.814,3756.138 1781.814,3835.938L1692.414,3835.938C1685.214,3802.938 1660.614,3784.338 1625.814,3784.338C1574.214,3784.338 1552.614,3828.138 1552.614,3876.138C1552.614,3923.538 1574.214,3967.338 1625.814,3967.338C1660.614,3967.338 1685.214,3948.738 1692.414,3915.738L1781.814,3915.738C1766.814,3995.538 1706.814,4039.338 1625.814,4039.338C1531.614,4039.338 1462.014,3971.538 1462.014,3876.138C1462.014,3780.138 1531.614,3712.338 1625.814,3712.338ZM1825.614,3691.338L1825.614,3610.338L1921.614,3610.338L1921.614,3691.338L1825.614,3691.338ZM1826.214,4030.338L1826.214,3721.338L1921.014,3721.338L1921.014,4030.338L1826.214,4030.338ZM2075.214,3855.138C2075.214,3855.138 2134.014,3846.738 2153.814,3843.738C2170.014,3840.738 2178.414,3835.938 2178.414,3825.138C2178.414,3796.338 2161.614,3781.338 2128.614,3781.338C2098.614,3781.338 2076.414,3795.138 2072.814,3825.138L1984.014,3825.138C1995.414,3744.738 2049.414,3712.338 2126.814,3712.338C2210.814,3712.338 2267.814,3744.138 2267.814,3838.938L2267.814,3944.538C2267.814,3964.338 2269.614,3976.338 2288.814,3976.338L2294.814,3976.338L2294.814,4039.338L2254.614,4039.338C2222.214,4039.338 2197.614,4022.538 2191.014,3989.538C2160.414,4026.138 2120.814,4039.338 2079.414,4039.338C2018.214,4039.338 1969.014,4012.938 1969.014,3950.538C1969.014,3886.938 2017.614,3862.938 2075.214,3855.138ZM2109.414,3909.738C2081.814,3915.138 2059.014,3923.538 2059.014,3946.338C2059.014,3968.538 2074.014,3978.138 2101.014,3978.138C2138.214,3978.138 2178.414,3950.538 2178.414,3915.738L2178.414,3892.938C2176.614,3893.538 2170.014,3897.138 2154.414,3900.738C2138.814,3904.338 2109.414,3909.738 2109.414,3909.738ZM2341.614,4030.338L2341.614,3610.338L2437.014,3610.338L2437.014,4030.338L2341.614,4030.338Z" style="fill:white;fill-opacity:0.67;"/>
        </g>
    </g>
</svg>
