<?xml version="1.0" encoding="UTF-8" standalone="no"?>
<!DOCTYPE svg PUBLIC "-//W3C//DTD SVG 1.1//EN" "http://www.w3.org/Graphics/SVG/1.1/DTD/svg11.dtd">
<svg width="100%" height="100%" viewBox="0 0 3544 3544" version="1.1" xmlns="http://www.w3.org/2000/svg" xmlns:xlink="http://www.w3.org/1999/xlink" xml:space="preserve" xmlns:serif="http://www.serif.com/" style="fill-rule:evenodd;clip-rule:evenodd;stroke-linejoin:round;stroke-miterlimit:2;">
    <g transform="matrix(2.120471,0,0,2.171144,-3672.655819,-3664.891153)">
        <ellipse cx="2567.5" cy="2504" rx="835.5" ry="816" style="fill:rgb(20,0,45);"/>
    </g>
    <g transform="matrix(10.332459,0,0,10.332459,-11006.170276,-10777.372872)">
        <path d="M1325.919,1139.488C1330.175,1144.895 1334.009,1150.754 1337.35,1157.042C1367.621,1214.026 1345.934,1284.866 1288.95,1315.137C1231.966,1345.409 1161.126,1323.721 1130.855,1266.737C1127.348,1260.136 1124.539,1253.35 1122.401,1246.462C1129.654,1233.677 1140.505,1222.737 1154.436,1215.336C1162.465,1211.071 1170.896,1208.312 1179.404,1206.959C1179.933,1188.161 1190.273,1170.166 1208.053,1160.721C1225.736,1151.327 1246.309,1152.766 1262.147,1162.705C1267.65,1157.199 1274.052,1152.409 1281.28,1148.569C1295.501,1141.015 1310.978,1138.171 1325.919,1139.488Z" style="fill:white;"/>
    </g>
</svg>
